<?xml version="1.0" encoding="UTF-8" standalone="no"?>
<!-- Created with Inkscape (http://www.inkscape.org/) -->

<svg
   width="203.34546mm"
   height="189.67712mm"
   viewBox="0 0 203.34545 189.67713"
   version="1.1"
   id="svg1164"
   inkscape:version="1.1.1 (3bf5ae0d25, 2021-09-20)"
   sodipodi:docname="pem.svg"
   xmlns:inkscape="http://www.inkscape.org/namespaces/inkscape"
   xmlns:sodipodi="http://sodipodi.sourceforge.net/DTD/sodipodi-0.dtd"
   xmlns="http://www.w3.org/2000/svg"
   xmlns:svg="http://www.w3.org/2000/svg">
  <sodipodi:namedview
     id="namedview1166"
     pagecolor="#ffffff"
     bordercolor="#666666"
     borderopacity="1.0"
     inkscape:pageshadow="2"
     inkscape:pageopacity="0.0"
     inkscape:pagecheckerboard="0"
     inkscape:document-units="mm"
     showgrid="false"
     inkscape:zoom="0.73406285"
     inkscape:cx="372.5839"
     inkscape:cy="439.33568"
     inkscape:window-width="1476"
     inkscape:window-height="1009"
     inkscape:window-x="-8"
     inkscape:window-y="-8"
     inkscape:window-maximized="1"
     inkscape:current-layer="layer1" />
  <defs
     id="defs1161" />
  <g
     inkscape:label="Layer 1"
     inkscape:groupmode="layer"
     id="layer1"
     transform="translate(-6.4583356,-2.9942387)">
    <path
       d="M 12.652268,40.501665 87.672126,4.0926124 c 5.44583,-2.642995 12.06359,-0.349957 14.706954,5.095493 l 36.40879,75.0199036 c 2.64266,5.445475 0.3496,12.063582 -5.09552,14.706945 L 58.671674,135.3234 c -5.445125,2.64301 -12.062884,0.34996 -14.705895,-5.09588 L 7.5565702,55.207914 C 4.9139112,49.762435 7.2065432,43.144677 12.652268,40.501665"
       style="fill:#4c3f41;fill-opacity:1;fill-rule:evenodd;stroke:none;stroke-width:0.0352778"
       id="path168" />
    <path
       d="M 16.126601,46.740894 90.424496,10.682116 c 2.19252,-1.0643336 4.85669,-0.14112 5.92138,2.051738 l 5.266264,10.852116 c 1.06469,2.192514 0.14112,4.856339 -2.051404,5.92067 L 25.262558,65.56547 c -2.192444,1.06433 -4.856763,0.140758 -5.921164,-2.051756 L 14.07481,52.661916 c -1.064119,-2.192514 -0.14097,-4.857045 2.051791,-5.921022"
       style="fill:#7db032;fill-opacity:1;fill-rule:evenodd;stroke:none;stroke-width:0.0352778"
       id="path170" />
    <path
       d="m 16.173026,48.987383 75.9882,-36.878996 c 0.8262,-0.401107 1.83021,-0.0533 2.23096,0.772927 l 5.895634,12.14787 c 0.40075,0.826206 0.0529,1.830211 -0.772594,2.23132 L 23.526503,64.139542 c -0.826276,0.400756 -1.830176,0.05292 -2.231178,-0.773642 L 15.399667,51.218349 c -0.400721,-0.826205 -0.05306,-1.830564 0.773359,-2.230966"
       style="fill:#8abe3b;fill-opacity:1;fill-rule:evenodd;stroke:none;stroke-width:0.0352778"
       id="path172" />
    <path
       d="m 27.273744,68.382048 11.155893,-5.414787 c 2.147358,-1.041753 4.756855,-0.137936 5.799314,2.009423 l 5.414081,11.156245 c 1.042105,2.147357 0.137936,4.757206 -2.009775,5.799311 l -11.15554,5.413725 c -2.147711,1.04281 -4.756856,0.138289 -5.799314,-2.008716 L 25.263969,74.180656 c -1.042106,-2.147005 -0.137583,-4.756855 2.009775,-5.798608"
       style="fill:#3f3233;fill-opacity:1;fill-rule:evenodd;stroke:none;stroke-width:0.0352778"
       id="path174" />
    <path
       d="m 27.142511,70.226017 12.81677,-6.220531 c 0.898172,-0.435327 1.989667,-0.05786 2.425347,0.840317 l 6.220179,12.816417 c 0.436386,0.898525 0.05786,1.990372 -0.840317,2.426404 l -12.81677,6.219823 c -0.89782,0.436032 -1.989314,0.0575 -2.425701,-0.84067 L 26.302194,72.651365 c -0.436033,-0.898525 -0.05785,-1.989667 0.840317,-2.425348"
       style="fill:#c2a8aa;fill-opacity:1;fill-rule:evenodd;stroke:none;stroke-width:0.0352778"
       id="path176" />
    <path
       d="m 48.081637,58.282725 c 3.718631,-1.804459 7.436909,-3.608917 11.15554,-5.413375 2.147711,-1.042459 4.757209,-0.137937 5.799309,2.009069 1.80517,3.718984 3.60963,7.437262 5.41409,11.155893 1.04245,2.147358 0.13864,4.756855 -2.00943,5.799314 -3.71827,1.804458 -7.436905,3.609622 -11.155536,5.414081 -2.147359,1.042457 -4.757209,0.137936 -5.799667,-2.009423 -1.804106,-3.718278 -3.608917,-7.437614 -5.413728,-11.155539 -1.042106,-2.147712 -0.137936,-4.757562 2.009422,-5.80002"
       style="fill:#3f3233;fill-opacity:1;fill-rule:evenodd;stroke:none;stroke-width:0.0352778"
       id="path178" />
    <path
       d="m 48.780843,59.723822 c 3.718278,-1.804458 7.437261,-3.609269 11.155539,-5.414081 1.355373,-0.657577 3.001784,-0.08714 3.659364,1.268589 1.80481,3.717926 3.60962,7.436556 5.41408,11.15554 0.65758,1.355019 0.0871,3.001081 -1.26788,3.659011 -3.71863,1.804811 -7.437264,3.608917 -11.155894,5.413728 -1.354667,0.657931 -3.001081,0.08749 -3.659012,-1.267883 -1.804458,-3.718631 -3.609269,-7.436909 -5.414081,-11.15554 -0.657578,-1.355019 -0.08714,-3.001786 1.267884,-3.659364"
       style="fill:#c2a8aa;fill-opacity:1;fill-rule:evenodd;stroke:none;stroke-width:0.0352778"
       id="path180" />
    <path
       d="m 68.889176,48.184813 c 3.71828,-1.804811 7.43726,-3.609622 11.15519,-5.414081 2.14806,-1.042458 4.75756,-0.137936 5.80002,2.00907 1.80446,3.718631 3.60891,7.437261 5.41408,11.155892 1.0421,2.147359 0.13793,4.757562 -2.00978,5.799667 -3.71863,1.804811 -7.43726,3.60927 -11.15518,5.413728 -2.14807,1.042459 -4.75721,0.137936 -5.79967,-2.009069 -1.80481,-3.718984 -3.60927,-7.437262 -5.41408,-11.155893 -1.04246,-2.147711 -0.13794,-4.756855 2.00942,-5.799314"
       style="fill:#3f3233;fill-opacity:1;fill-rule:evenodd;stroke:none;stroke-width:0.0352778"
       id="path182" />
    <path
       d="m 69.588736,49.625558 c 3.71863,-1.804812 7.43656,-3.60927 11.15589,-5.414081 1.35502,-0.657578 3.00108,-0.08714 3.65866,1.267883 1.80481,3.718278 3.60927,7.436909 5.41408,11.155893 0.65828,1.355019 0.0878,3.001433 -1.26788,3.659011 -3.71863,1.804811 -7.43656,3.609622 -11.15554,5.414081 -1.35502,0.657578 -3.00144,0.08678 -3.65901,-1.268236 -1.80517,-3.718278 -3.60963,-7.436909 -5.41408,-11.15554 -0.65758,-1.355019 -0.0871,-3.001081 1.26788,-3.659011"
       style="fill:#c2a8aa;fill-opacity:1;fill-rule:evenodd;stroke:none;stroke-width:0.0352778"
       id="path184" />
    <path
       d="m 89.697066,38.086196 11.155904,-5.414081 c 2.14736,-1.042458 4.75721,-0.137936 5.79896,2.00907 l 5.41408,11.156245 c 1.04246,2.147005 0.13829,4.757208 -2.00872,5.798961 l -11.156604,5.414787 c -2.147,1.041752 -4.7565,0.137936 -5.79896,-2.009776 L 87.687296,43.88551 c -1.04211,-2.147711 -0.13794,-4.757209 2.00977,-5.799314"
       style="fill:#3f3233;fill-opacity:1;fill-rule:evenodd;stroke:none;stroke-width:0.0352778"
       id="path186" />
    <path
       d="m 89.565836,39.930165 12.816424,-6.220531 c 0.89852,-0.43568 1.98967,-0.0575 2.42605,0.84067 l 6.22053,12.81677 c 0.43533,0.89782 0.0575,1.989667 -0.84102,2.425348 l -12.816424,6.220531 c -0.89817,0.436033 -1.98966,0.0575 -2.42534,-0.841023 l -6.22054,-12.816417 c -0.43603,-0.898172 -0.0575,-1.989314 0.84032,-2.425348"
       style="fill:#ef3620;fill-opacity:1;fill-rule:evenodd;stroke:none;stroke-width:0.0352778"
       id="path188" />
    <path
       d="m 37.154345,88.740848 11.155892,-5.414784 c 2.147359,-1.041752 4.757209,-0.137583 5.799314,2.010127 l 5.413729,11.155534 c 1.042811,2.14771 0.138288,4.757205 -2.00907,5.798965 l -11.155892,5.41408 c -2.147359,1.04246 -4.756856,0.13793 -5.799315,-2.00907 L 35.144922,94.539453 c -1.042105,-2.147004 -0.138288,-4.756148 2.009423,-5.798605"
       style="fill:#3f3233;fill-opacity:1;fill-rule:evenodd;stroke:none;stroke-width:0.0352778"
       id="path190" />
    <path
       d="m 37.023111,90.584816 12.816771,-6.220527 c 0.898172,-0.43568 1.989666,-0.05786 2.425347,0.840316 l 6.220531,12.81641 c 0.435681,0.898878 0.0575,1.990025 -0.840669,2.426055 l -12.816771,6.22018 c -0.898172,0.43603 -1.989314,0.0572 -2.425347,-0.84102 L 36.182795,93.010163 c -0.435681,-0.898173 -0.05821,-1.989666 0.840316,-2.425347"
       style="fill:#c2a8aa;fill-opacity:1;fill-rule:evenodd;stroke:none;stroke-width:0.0352778"
       id="path192" />
    <path
       d="m 57.962591,78.641531 c 3.71863,-1.804458 7.436905,-3.608916 11.155535,-5.413375 2.14736,-1.042458 4.75686,-0.137936 5.79932,2.009423 1.80446,3.71863 3.60962,7.436906 5.41408,11.155534 1.04246,2.147357 0.13794,4.756853 -2.00942,5.799311 -3.71863,1.804457 -7.43726,3.60962 -11.15554,5.41443 -2.14771,1.042106 -4.75756,0.137584 -5.79967,-2.009774 -1.804811,-3.718276 -3.609269,-7.436905 -5.414081,-11.155532 -1.042458,-2.147711 -0.137936,-4.75756 2.009776,-5.800017"
       style="fill:#3f3233;fill-opacity:1;fill-rule:evenodd;stroke:none;stroke-width:0.0352778"
       id="path194" />
    <path
       d="m 58.661796,80.083333 c 3.71828,-1.805163 7.43691,-3.609974 11.15554,-5.414785 1.35502,-0.657578 3.00143,-0.08643 3.65901,1.268589 1.80446,3.717924 3.60962,7.436552 5.41443,11.155534 0.65723,1.355018 0.0868,3.001078 -1.26823,3.659009 -3.71863,1.80481 -7.43726,3.608915 -11.15554,5.413725 -1.35537,0.65793 -3.00179,0.08749 -3.65937,-1.267529 -1.804454,-3.718629 -3.609265,-7.437258 -5.414076,-11.155887 -0.657578,-1.355018 -0.08714,-3.001784 1.268236,-3.658656"
       style="fill:#c2a8aa;fill-opacity:1;fill-rule:evenodd;stroke:none;stroke-width:0.0352778"
       id="path196" />
    <path
       d="m 78.769776,68.54362 c 3.71863,-1.804458 7.43726,-3.609622 11.15554,-5.414081 2.14807,-1.042458 4.75756,-0.137936 5.80002,2.009422 1.80446,3.718278 3.60892,7.437262 5.413734,11.15554 1.04175,2.148063 0.13758,4.757559 -2.009424,5.799311 -3.71863,1.805163 -7.43726,3.609621 -11.15554,5.413725 -2.14807,1.042811 -4.75721,0.138289 -5.79967,-2.008715 -1.80446,-3.718982 -3.60892,-7.437258 -5.41408,-11.155888 -1.04211,-2.147711 -0.13794,-4.756856 2.00942,-5.799314"
       style="fill:#3f3233;fill-opacity:1;fill-rule:evenodd;stroke:none;stroke-width:0.0352778"
       id="path198" />
    <path
       d="m 79.469336,69.984012 c 3.71863,-1.804459 7.43691,-3.608917 11.15625,-5.414081 1.35466,-0.657578 3.00072,-0.08714 3.65865,1.267883 1.80482,3.719337 3.60927,7.437262 5.41373,11.156245 0.657934,1.355019 0.0878,3.001432 -1.26753,3.65901 -3.71863,1.80481 -7.43691,3.60962 -11.15554,5.414078 -1.35537,0.657576 -3.00143,0.08749 -3.65936,-1.268236 -1.80517,-3.718276 -3.60962,-7.436904 -5.41408,-11.155535 -0.65793,-1.35502 -0.0871,-3.001081 1.26788,-3.659364"
       style="fill:#c2a8aa;fill-opacity:1;fill-rule:evenodd;stroke:none;stroke-width:0.0352778"
       id="path200" />
    <path
       d="m 99.578376,58.445003 11.155544,-5.414081 c 2.14701,-1.042459 4.7565,-0.137936 5.79896,2.009422 l 4.60164,9.482315 0.81244,1.673225 10.15154,20.916895 c 1.04175,2.147005 0.13829,4.756853 -2.00978,5.799311 l -11.15554,5.414078 c -2.14771,1.042459 -4.75721,0.137936 -5.79967,-2.009068 l -10.15082,-20.917243 -0.81245,-1.673578 -4.601994,-9.481962 c -1.04246,-2.147711 -0.13793,-4.757561 2.01013,-5.799314"
       style="fill:#3f3233;fill-opacity:1;fill-rule:evenodd;stroke:none;stroke-width:0.0352778"
       id="path202" />
    <path
       d="m 100.27723,59.8861 11.15519,-5.414786 c 1.35573,-0.656873 3.00179,-0.08643 3.65936,1.268589 l 3.90279,8.040864 1.512,3.114675 10.15083,20.91619 c 0.65758,1.355018 0.0871,3.001784 -1.26788,3.659361 l -11.15554,5.414431 c -1.35502,0.657225 -3.00108,0.08678 -3.65937,-1.268236 l -10.15118,-20.916184 -1.5113,-3.114675 -3.902784,-8.040865 c -0.65758,-1.355725 -0.0871,-3.002139 1.267884,-3.659364"
       style="fill:#c2a8aa;fill-opacity:1;fill-rule:evenodd;stroke:none;stroke-width:0.0352778"
       id="path204" />
    <path
       d="m 47.305526,109.65704 11.156245,-5.41408 c 2.147359,-1.04175 4.756505,-0.13829 5.798965,2.00942 l 5.41408,11.15554 c 1.04246,2.14807 0.13793,4.75757 -2.00907,5.80003 l -11.156247,5.41373 c -2.147006,1.0421 -4.756856,0.13758 -5.798962,-2.00943 l -5.414433,-11.15589 c -1.042106,-2.14772 -0.137584,-4.75686 2.009422,-5.79932"
       style="fill:#3f3233;fill-opacity:1;fill-rule:evenodd;stroke:none;stroke-width:0.0352778"
       id="path206" />
    <path
       d="m 47.174645,111.50101 12.816418,-6.22053 c 0.898525,-0.43533 1.989667,-0.0579 2.426053,0.84067 l 6.21983,12.81677 c 0.43603,0.89853 0.0579,1.99002 -0.84032,2.4257 l -12.816772,6.22054 c -0.898172,0.43533 -1.989314,0.0579 -2.425347,-0.84138 l -6.220531,-12.81642 c -0.435681,-0.89817 -0.05786,-1.98967 0.840669,-2.42535"
       style="fill:#c2a8aa;fill-opacity:1;fill-rule:evenodd;stroke:none;stroke-width:0.0352778"
       id="path208" />
    <path
       d="m 68.113776,99.558421 c 3.71827,-1.804811 7.4369,-3.609269 11.15518,-5.414079 2.14771,-1.042457 4.75721,-0.137936 5.79967,2.009774 1.80481,3.718277 3.60927,7.436554 5.41408,11.155184 1.04211,2.14736 0.13829,4.75686 -2.00977,5.79932 -3.71793,1.80446 -7.43691,3.60927 -11.15554,5.41444 -2.14736,1.0421 -4.75686,0.13758 -5.79932,-2.01013 -1.80481,-3.71793 -3.60927,-7.43656 -5.41408,-11.15519 -1.04211,-2.14772 -0.13794,-4.75757 2.00978,-5.799319"
       style="fill:#3f3233;fill-opacity:1;fill-rule:evenodd;stroke:none;stroke-width:0.0352778"
       id="path210" />
    <path
       d="m 68.812976,100.99952 c 3.71863,-1.804813 7.43691,-3.609977 11.15589,-5.414434 1.35467,-0.657577 3.00073,-0.08678 3.65902,1.268235 1.80445,3.718279 3.60891,7.436909 5.41372,11.155539 0.65793,1.35502 0.0875,3.00108 -1.26753,3.65937 -3.71863,1.8041 -7.43726,3.60856 -11.15554,5.41373 -1.35537,0.65793 -3.00178,0.0875 -3.65971,-1.26753 -1.80446,-3.71934 -3.60892,-7.43727 -5.41373,-11.15555 -0.65758,-1.35572 -0.0871,-3.00214 1.26788,-3.65936"
       style="fill:#c2a8aa;fill-opacity:1;fill-rule:evenodd;stroke:none;stroke-width:0.0352778"
       id="path212" />
    <path
       d="m 88.921666,89.459809 c 3.71792,-1.804458 7.43655,-3.608915 11.155544,-5.414078 2.147,-1.042106 4.75721,-0.137936 5.79967,2.009774 1.8041,3.717922 3.60856,7.437257 5.41337,11.15518 1.04246,2.148417 0.13794,4.757565 -2.00977,5.800025 -3.71864,1.80445 -7.43656,3.60856 -11.155194,5.41337 -2.14771,1.04246 -4.75686,0.13794 -5.79932,-2.00907 -1.80445,-3.71934 -3.60962,-7.436908 -5.41478,-11.155891 -1.04175,-2.147356 -0.13759,-4.756853 2.01048,-5.79931"
       style="fill:#3f3233;fill-opacity:1;fill-rule:evenodd;stroke:none;stroke-width:0.0352778"
       id="path214" />
    <path
       d="m 89.620166,90.900552 c 3.71898,-1.804457 7.43761,-3.608915 11.155544,-5.413372 1.35572,-0.658282 3.00214,-0.08784 3.65936,1.26753 1.80481,3.718628 3.60998,7.436904 5.41479,11.155533 0.65758,1.35502 0.0871,3.001787 -1.26859,3.658657 -3.71793,1.80552 -7.43691,3.60998 -11.155544,5.41479 -1.35502,0.65758 -3.00108,0.0871 -3.65901,-1.26859 -1.80446,-3.71793 -3.60927,-7.436557 -5.41373,-11.155186 -0.65793,-1.355018 -0.0878,-3.001079 1.26718,-3.659362"
       style="fill:#c2a8aa;fill-opacity:1;fill-rule:evenodd;stroke:none;stroke-width:0.0352778"
       id="path216" />
    <path
       d="m 197.58817,115.87793 h 4.38185 c 1.02094,0 1.94839,-0.41734 2.62149,-1.09009 0.67275,-0.67345 1.09009,-1.6009 1.09009,-2.62149 v -1.01918 c 0,-1.02023 -0.41734,-1.94839 -1.09009,-2.62149 -0.6731,-0.67275 -1.60055,-1.09008 -2.62149,-1.09008 h -0.67028 c -1.02023,0 -1.94839,0.41733 -2.62078,1.09008 -0.67346,0.6731 -1.09079,1.60126 -1.09079,2.62149 z m -11.13579,4.12221 c -1.13735,0 -2.06057,-0.92252 -2.06057,-2.06164 0,-1.13735 0.92322,-2.06057 2.06057,-2.06057 h 7.01358 v -4.73076 c 0,-2.15864 0.87983,-4.11797 2.29799,-5.53579 1.41782,-1.41816 3.37785,-2.29799 5.53579,-2.29799 h 0.67028 c 2.15865,0 4.11798,0.87983 5.53579,2.29799 1.41887,1.41782 2.29799,3.37715 2.29799,5.53579 v 1.01918 c 0,2.15794 -0.87912,4.11798 -2.29799,5.53579 -1.41781,1.41817 -3.37714,2.298 -5.53579,2.298 h -4.18077 c 0.18627,0.5394 0.49354,1.02305 0.88971,1.41887 0.67239,0.6731 1.60055,1.09044 2.62078,1.09044 h 4.52367 c 1.13771,0 2.06058,0.92286 2.06058,2.06057 0,1.13912 -0.92287,2.06164 -2.06058,2.06164 h -4.52367 c -2.15829,0 -4.11797,-0.87983 -5.53579,-2.298 -1.1497,-1.1497 -1.94521,-2.65465 -2.20521,-4.33352 h -7.10636 v 0"
       style="fill:#e02c3a;fill-opacity:1;fill-rule:evenodd;stroke:none;stroke-width:0.0352778"
       id="path218" />
    <path
       d="M 85.107076,106.37762 V 77.236418 L 108.90512,101.0348 Z"
       style="fill:#e02c3a;fill-opacity:1;fill-rule:evenodd;stroke:none;stroke-width:0.0352778"
       id="path220" />
    <path
       d="m 149.65554,151.57376 h 24.64894 v 34.11714 c 0,3.83936 -3.14149,6.98047 -6.98041,6.98047 H 156.6356 c -3.83892,0 -6.98006,-3.14111 -6.98006,-6.98047 v -34.11714"
       style="fill:#e02c3a;fill-opacity:1;fill-rule:evenodd;stroke:none;stroke-width:0.0352778"
       id="path222" />
    <path
       d="M 93.879956,151.57376 H 118.5296 v 34.11714 c 0,3.83936 -3.14113,6.98047 -6.98112,6.98047 h -10.6881 c -3.839294,0 -6.980424,-3.14111 -6.980424,-6.98047 v -34.11714"
       style="fill:#e02c3a;fill-opacity:1;fill-rule:evenodd;stroke:none;stroke-width:0.0352778"
       id="path224" />
    <path
       d="m 184.60171,158.91542 v 26.77615 c 0,3.83897 -3.14043,6.9798 -6.97971,6.9798 h -10.68881 c -3.83928,0 -6.98042,-3.14083 -6.98042,-6.9798 v -8.25775 c -7.82461,3.16618 -16.60243,4.94097 -25.87484,4.94097 -9.33026,0 -18.15712,-1.79808 -26.01912,-5.00133 v 8.31811 c 0,3.83897 -3.14114,6.9798 -6.98042,6.9798 H 90.389926 c -3.83893,0 -6.98006,-3.14083 -6.98006,-6.9798 v -26.96912 c -4.88456,-6.60154 -7.98513,-14.22683 -8.73019,-22.40492 -0.62477,0.10513 -1.26648,0.16051 -1.92123,0.16051 -6.36059,0 -11.517491,-5.15655 -11.517491,-11.5182 0,-6.36094 5.156901,-11.51749 11.517491,-11.51749 2.01577,0 3.91054,0.51893 5.55801,1.4284 3.27131,-7.27464 8.51429,-13.73965 15.18074,-18.938884 l 11.872384,-25.536868 10.1921,14.621576 c 5.82825,-1.595613 12.05125,-2.459917 18.51625,-2.459917 32.90147,0 59.57394,22.344583 59.57394,49.908893 0,9.7162 -3.31752,18.78118 -9.05016,26.44987"
       style="fill:#f14960;fill-opacity:1;fill-rule:evenodd;stroke:none;stroke-width:0.0352778"
       id="path226" />
    <path
       d="m 83.409866,164.9458 v -6.22335 c -4.88456,-6.60154 -7.98513,-14.22683 -8.73019,-22.40492 -0.62477,0.10513 -1.26648,0.16051 -1.92123,0.16051 -6.36059,0 -11.517491,-5.15655 -11.517491,-11.5182 0,-6.36094 5.156901,-11.51749 11.517491,-11.51749 2.01577,0 3.91054,0.51893 5.55801,1.4284 3.27131,-7.27464 8.51429,-13.73965 15.18074,-18.938884 l 11.872384,-25.536868 10.1921,14.621576 c 5.82825,-1.595613 12.05125,-2.459917 18.51625,-2.459917 11.09063,0 21.47077,2.541762 30.36288,6.964535 1.34656,5.11457 2.06657,10.483848 2.06657,16.021758 0,34.66678 -28.10333,62.76976 -62.7701,62.76976 -7.114124,0 -13.951664,-1.18569 -20.327414,-3.36691"
       style="fill:#f2576e;fill-opacity:1;fill-rule:evenodd;stroke:none;stroke-width:0.0352778"
       id="path228" />
    <path
       d="m 134.07793,82.556657 c 22.2624,0 41.66976,10.231961 51.89468,25.386593 l -4.32153,2.79364 c -2.58163,1.66864 -5.8226,1.45839 -8.16716,-0.53163 -12.64567,-10.730094 -26.81641,-16.443682 -42.63955,-16.707912 -3.7398,-0.06244 -6.74934,-3.122435 -6.74934,-6.862583 v -3.376434 c 3.24626,-0.45861 6.58107,-0.701674 9.9829,-0.701674"
       style="fill:#e02c3a;fill-opacity:1;fill-rule:evenodd;stroke:none;stroke-width:0.0352778"
       id="path230" />
    <path
       d="m 93.391356,116.06702 c 3.83576,0 6.964904,-3.12879 6.964904,-6.96455 0,-3.83575 -3.129144,-6.96489 -6.964904,-6.96489 -3.83575,0 -6.96489,3.12914 -6.96489,6.96489 0,3.83576 3.12914,6.96455 6.96489,6.96455"
       style="fill:#fbced7;fill-opacity:1;fill-rule:evenodd;stroke:none;stroke-width:0.0352778"
       id="path232" />
    <path
       d="m 93.391356,113.1065 c 2.20522,0 4.00403,-1.79917 4.00403,-4.00403 0,-2.20521 -1.79881,-4.00367 -4.00403,-4.00367 -2.20556,0 -4.00367,1.79846 -4.00367,4.00367 0,2.20486 1.79811,4.00403 4.00367,4.00403"
       style="fill:#512427;fill-opacity:1;fill-rule:evenodd;stroke:none;stroke-width:0.0352778"
       id="path234" />
    <path
       d="m 96.463346,109.12717 c 1.11478,0 2.02283,-0.90876 2.02283,-2.02248 0,-1.11336 -0.90805,-2.02212 -2.02283,-2.02212 -1.11336,0 -2.02212,0.90876 -2.02212,2.02212 0,1.11372 0.90876,2.02248 2.02212,2.02248"
       style="fill:#fbced7;fill-opacity:1;fill-rule:evenodd;stroke:none;stroke-width:0.0352778"
       id="path236" />
    <path
       d="m 169.75823,30.110948 0.0931,0.558095 c 0.2547,0.0053 0.50835,0.01411 0.76164,0.02505 l 0.13053,-0.55245 c 0.40922,0.01905 0.81633,0.04586 1.22167,0.07937 l 0.0561,0.564092 c 0.254,0.02187 0.50589,0.04586 0.75742,0.07303 l 0.16615,-0.541514 c 0.40746,0.04551 0.81245,0.09737 1.21568,0.157338 l 0.0191,0.565151 c 0.25188,0.0381 0.50235,0.07973 0.75247,0.123825 l 0.20144,-0.531284 c 0.40322,0.07197 0.80257,0.153459 1.20015,0.239889 l -0.0176,0.566208 c 0.24977,0.05503 0.49812,0.112889 0.74507,0.173214 l 0.23636,-0.516114 c 0.39617,0.09843 0.79057,0.202495 1.18145,0.314325 l -0.0543,0.56515 c 0.24553,0.07126 0.4893,0.144992 0.73307,0.221192 l 0.26847,-0.498122 c 0.38982,0.124178 0.77611,0.255058 1.15887,0.392994 l -0.0907,0.558448 c 0.24024,0.08714 0.47837,0.177447 0.71543,0.269875 l 0.30127,-0.481189 c 0.37995,0.148872 0.75495,0.307622 1.12748,0.4699 l -0.12735,0.552097 c 0.23354,0.102658 0.46461,0.207786 0.69462,0.315383 l 0.33232,-0.459669 c 0.369,0.173919 0.73448,0.353483 1.09608,0.540103 l -0.16405,0.543983 c 0.22649,0.117475 0.45085,0.23742 0.67381,0.360186 l 0.36089,-0.436386 c 0.35701,0.197908 0.71085,0.401108 1.0601,0.611717 l -0.19861,0.530225 c 0.21695,0.131586 0.43285,0.2667 0.64734,0.403578 l 0.38876,-0.412398 c 0.3429,0.220839 0.68051,0.449087 1.0153,0.681567 l -0.23354,0.516114 c 0.20814,0.145697 0.41416,0.294217 0.61912,0.4445 l 0.41593,-0.386292 c 0.32844,0.243417 0.65229,0.492831 0.9719,0.747536 l -0.26599,0.500592 c 0.19755,0.15875 0.3937,0.31997 0.58737,0.482953 l 0.43921,-0.358069 c 0.3115,0.263877 0.61983,0.531283 0.92181,0.805391 l -0.29916,0.482953 c 0.18698,0.17145 0.37254,0.345017 0.55598,0.520347 l 0.46144,-0.328083 c 0.29351,0.283633 0.58243,0.572911 0.86677,0.866775 l -0.32879,0.460728 c 0.17568,0.183444 0.3489,0.3683 0.52035,0.555625 l 0.4833,-0.298097 c 0.27447,0.301272 0.54187,0.6096 0.80575,0.921102 l -0.35842,0.438503 c 0.16298,0.194028 0.32349,0.390172 0.48295,0.588081 l 0.50094,-0.265995 c 0.25436,0.318912 0.50377,0.642409 0.74683,0.970139 l -0.38699,0.414867 c 0.14993,0.204258 0.29809,0.410281 0.44414,0.61842 l 0.51647,-0.232128 c 0.23389,0.335139 0.46285,0.674511 0.68439,1.018822 l -0.41204,0.388761 c 0.13652,0.213783 0.27128,0.428978 0.40357,0.646642 l 0.52988,-0.198261 c 0.2106,0.34925 0.4138,0.703086 0.61207,1.06045 l -0.43674,0.360539 c 0.12241,0.222602 0.24271,0.446969 0.36018,0.672747 l 0.54363,-0.163336 c 0.18733,0.36195 0.36689,0.72778 0.54081,1.097139 l -0.46002,0.330905 c 0.1076,0.230012 0.21308,0.461787 0.31503,0.694267 l 0.55316,-0.127353 c 0.16263,0.373239 0.32032,0.748242 0.4699,1.128184 l -0.48155,0.301272 c 0.0924,0.237067 0.18274,0.474839 0.26988,0.714375 l 0.5588,-0.09031 c 0.13758,0.382764 0.26811,0.769055 0.39193,1.158522 l -0.49812,0.267759 c 0.0766,0.243416 0.15064,0.487891 0.22155,0.733425 l 0.56585,-0.05397 c 0.11183,0.390525 0.21555,0.783872 0.31327,1.179336 l -0.51576,0.235655 c 0.0607,0.246945 0.11783,0.494948 0.17321,0.743656 l 0.56656,-0.01587 c 0.0861,0.397933 0.16757,0.797278 0.23989,1.20015 l -0.53093,0.200731 c 0.0437,0.249766 0.0854,0.500238 0.12383,0.751416 l 0.5655,0.02081 c 0.0596,0.40252 0.11112,0.807509 0.15663,1.214261 l -0.54151,0.165806 c 0.0272,0.25153 0.0519,0.504119 0.073,0.757767 l 0.5648,0.05786 c 0.0335,0.404636 0.0607,0.812447 0.0797,1.220964 l -0.5528,0.129822 c 0.0116,0.253648 0.0201,0.507295 0.0257,0.760942 l 0.55809,0.09419 c 0.004,0.205316 0.008,0.409928 0.008,0.616303 0,0.203552 -0.004,0.406047 -0.008,0.609247 l -0.55809,0.09278 c -0.005,0.254706 -0.0141,0.508706 -0.025,0.761295 l 0.5521,0.130528 c -0.0187,0.409928 -0.0462,0.81668 -0.079,1.222022 l -0.5641,0.05644 c -0.0219,0.252942 -0.0462,0.505531 -0.0734,0.757062 l 0.54151,0.166511 c -0.0455,0.407105 -0.0967,0.812447 -0.15663,1.215319 l -0.56551,0.01905 c -0.0384,0.251531 -0.0801,0.502003 -0.12382,0.752123 l 0.53093,0.201436 c -0.0716,0.403225 -0.15311,0.802922 -0.23989,1.199797 l -0.56585,-0.01693 c -0.055,0.249414 -0.11289,0.497769 -0.17322,0.744714 l 0.51576,0.236713 c -0.0984,0.395817 -0.20214,0.790928 -0.31397,1.181453 l -0.56515,-0.05433 c -0.0713,0.244827 -0.14499,0.489655 -0.22154,0.732366 l 0.49812,0.26917 c -0.12383,0.389819 -0.25506,0.776111 -0.39264,1.159228 l -0.5588,-0.09102 c -0.0871,0.239536 -0.1771,0.478014 -0.26988,0.71508 l 0.48154,0.301625 c -0.14957,0.379942 -0.30762,0.754592 -0.4699,1.127478 l -0.55245,-0.127705 c -0.10265,0.233186 -0.20778,0.46496 -0.31503,0.694971 l 0.45932,0.331964 c -0.17357,0.368653 -0.35348,0.734836 -0.5401,1.096433 l -0.54328,-0.163689 c -0.11783,0.225778 -0.23813,0.450498 -0.36054,0.673099 l 0.43639,0.361245 c -0.19791,0.357011 -0.40182,0.710847 -0.61243,1.059743 l -0.52952,-0.198612 c -0.13229,0.217662 -0.2667,0.43321 -0.40393,0.647346 l 0.41275,0.388761 c -0.22119,0.343253 -0.44944,0.680508 -0.68192,1.014941 l -0.51611,-0.232481 c -0.14605,0.207786 -0.29386,0.413808 -0.4445,0.61842 l 0.38629,0.415925 c -0.24271,0.328789 -0.49283,0.652286 -0.74753,0.972255 l -0.50095,-0.2667 c -0.1584,0.198261 -0.31926,0.394052 -0.4826,0.588433 l 0.35807,0.439208 c -0.26317,0.311503 -0.53093,0.619831 -0.80539,0.921455 l -0.48295,-0.299155 c -0.1711,0.186619 -0.34431,0.371827 -0.52,0.555624 l 0.32773,0.461081 c -0.28328,0.294569 -0.57291,0.583494 -0.86677,0.867479 l -0.46038,-0.328435 c -0.18344,0.175331 -0.369,0.348896 -0.55562,0.519994 l 0.29774,0.4826 c -0.30092,0.275166 -0.60925,0.542572 -0.92075,0.806097 l -0.4385,-0.358775 c -0.19438,0.164042 -0.39053,0.324555 -0.58773,0.483657 l 0.26529,0.501297 c -0.31891,0.254 -0.64241,0.503062 -0.97014,0.745773 l -0.41487,-0.386645 c -0.2039,0.150284 -0.41028,0.298098 -0.61806,0.444148 l 0.23177,0.516818 c -0.33549,0.233893 -0.67486,0.462844 -1.01882,0.684389 l -0.38841,-0.412397 c -0.21413,0.136877 -0.42933,0.271286 -0.64664,0.403225 l 0.19791,0.530578 c -0.34925,0.210255 -0.70309,0.414161 -1.05975,0.612069 l -0.36089,-0.436739 c -0.2226,0.122414 -0.44732,0.242358 -0.6731,0.360186 l 0.16299,0.54363 c -0.36125,0.186619 -0.72743,0.366536 -1.09644,0.541161 l -0.33126,-0.460375 c -0.23001,0.107597 -0.46143,0.213078 -0.69426,0.315383 l 0.12735,0.552098 c -0.37324,0.163336 -0.74859,0.320674 -1.12854,0.470604 l -0.30056,-0.481893 c -0.23707,0.09278 -0.47519,0.183091 -0.71508,0.269874 l 0.091,0.5588 c -0.38311,0.137936 -0.76941,0.268464 -1.15852,0.392641 l -0.26811,-0.498827 c -0.24342,0.07726 -0.48824,0.150988 -0.73378,0.22225 l 0.0543,0.56515 c -0.39017,0.11183 -0.78423,0.215546 -1.17934,0.313971 l -0.23495,-0.516466 c -0.24729,0.06068 -0.496,0.118181 -0.74471,0.172861 l 0.0162,0.567266 c -0.39794,0.08608 -0.79728,0.166864 -1.20051,0.239889 l -0.20037,-0.530931 c -0.24942,0.04374 -0.49989,0.08573 -0.75142,0.123825 l -0.0205,0.565503 c -0.40252,0.05962 -0.80821,0.111125 -1.21461,0.156633 l -0.16546,-0.541866 c -0.25153,0.02752 -0.50482,0.05186 -0.75812,0.07373 l -0.0575,0.564092 c -0.40499,0.03422 -0.81209,0.06032 -1.22167,0.08008 l -0.12947,-0.552449 c -0.25294,0.01094 -0.50659,0.01905 -0.76094,0.02505 l -0.0942,0.558093 c -0.20497,0.0039 -0.41028,0.0081 -0.61631,0.0081 -0.2032,0 -0.4064,-0.0042 -0.60854,-0.0078 l -0.0938,-0.558446 c -0.254,-0.0053 -0.50764,-0.01411 -0.76094,-0.0247 l -0.13053,0.552097 c -0.40922,-0.01905 -0.81668,-0.04586 -1.22166,-0.07902 l -0.0568,-0.564091 c -0.25259,-0.02187 -0.50518,-0.04621 -0.75671,-0.07373 l -0.16616,0.541867 c -0.40746,-0.04551 -0.81315,-0.09737 -1.21567,-0.156634 l -0.0191,-0.565855 c -0.25153,-0.03775 -0.50236,-0.07973 -0.75248,-0.123472 l -0.20143,0.53093 c -0.40323,-0.07161 -0.80257,-0.153811 -1.20015,-0.239889 l 0.0173,-0.565854 c -0.24906,-0.05539 -0.49777,-0.113242 -0.74506,-0.173567 l -0.23601,0.51576 c -0.39652,-0.09807 -0.79058,-0.20214 -1.18216,-0.313971 l 0.055,-0.56515 c -0.24553,-0.07126 -0.49,-0.144992 -0.73307,-0.221192 l -0.26846,0.49777 c -0.38982,-0.124178 -0.77611,-0.254706 -1.15958,-0.392642 l 0.0914,-0.5588 c -0.23954,-0.08678 -0.47837,-0.177093 -0.71544,-0.269874 l -0.30162,0.481893 c -0.37959,-0.149577 -0.75459,-0.307268 -1.12783,-0.469899 l 0.12806,-0.55245 c -0.23284,-0.102658 -0.46461,-0.207433 -0.69462,-0.315383 l -0.33197,0.460022 c -0.36936,-0.174625 -0.73483,-0.353836 -1.09643,-0.540455 l 0.16404,-0.54363 c -0.22648,-0.117828 -0.45156,-0.237772 -0.67381,-0.360892 l -0.36089,0.436739 c -0.35771,-0.197908 -0.71049,-0.401461 -1.06009,-0.611716 l 0.19861,-0.52952 c -0.21731,-0.132292 -0.43321,-0.267053 -0.64735,-0.404283 l -0.38876,0.412044 c -0.3429,-0.220486 -0.68051,-0.44838 -1.01529,-0.681214 l 0.23318,-0.516465 c -0.20778,-0.145345 -0.41381,-0.293864 -0.61877,-0.444148 l -0.41522,0.386292 c -0.32949,-0.242711 -0.65299,-0.492831 -0.97261,-0.747536 l 0.266,-0.500945 c -0.19791,-0.158749 -0.3937,-0.319262 -0.58738,-0.482599 l -0.43921,0.35807 c -0.31185,-0.263172 -0.61983,-0.530931 -0.9218,-0.805745 l 0.29915,-0.482952 c -0.18732,-0.171098 -0.37253,-0.344663 -0.55598,-0.519994 l -0.46072,0.328435 c -0.29457,-0.283632 -0.58315,-0.57291 -0.86749,-0.866774 l 0.32844,-0.461433 c -0.17533,-0.183092 -0.34854,-0.368299 -0.51999,-0.555271 l -0.48331,0.298449 c -0.27446,-0.301977 -0.54222,-0.609952 -0.80574,-0.921455 l 0.35842,-0.438503 c -0.16298,-0.194028 -0.3235,-0.389818 -0.48295,-0.588079 l -0.50095,0.265641 c -0.25435,-0.318558 -0.50377,-0.641703 -0.74612,-0.969786 l 0.38699,-0.415219 c -0.15063,-0.203906 -0.2988,-0.409928 -0.44485,-0.617362 l -0.51717,0.231423 c -0.23319,-0.335491 -0.46214,-0.67451 -0.68368,-1.019174 l 0.41204,-0.388056 c -0.13653,-0.214136 -0.27129,-0.429683 -0.40358,-0.646993 l -0.52987,0.197907 c -0.21061,-0.348896 -0.41381,-0.703085 -0.61207,-1.060096 l 0.43674,-0.360187 c -0.12241,-0.222601 -0.24236,-0.447321 -0.36019,-0.673099 l -0.54363,0.162984 c -0.18732,-0.361597 -0.36653,-0.727075 -0.54081,-1.096434 l 0.46003,-0.331611 c -0.10795,-0.230011 -0.21308,-0.461432 -0.31503,-0.694265 l -0.55316,0.127705 c -0.16263,-0.373239 -0.32032,-0.748594 -0.4699,-1.128183 l 0.48154,-0.301273 c -0.0924,-0.236713 -0.18274,-0.475191 -0.26987,-0.71508 l -0.5588,0.09102 c -0.13759,-0.383117 -0.26811,-0.769056 -0.39264,-1.157817 l 0.49882,-0.268817 c -0.0765,-0.243064 -0.15063,-0.487539 -0.22189,-0.733072 l -0.56515,0.05362 c -0.11219,-0.389819 -0.2159,-0.783519 -0.31398,-1.179689 l 0.51612,-0.234244 c -0.0607,-0.247298 -0.11783,-0.495653 -0.17322,-0.745067 l -0.56656,0.01658 c -0.0861,-0.39758 -0.16757,-0.797277 -0.23989,-1.20015 l 0.53093,-0.201436 c -0.0437,-0.249061 -0.0854,-0.499533 -0.12382,-0.751064 l -0.5655,-0.02046 c -0.06,-0.402519 -0.11113,-0.807508 -0.15699,-1.214966 l 0.54187,-0.164395 c -0.0272,-0.252236 -0.0519,-0.505531 -0.0737,-0.758472 l -0.5641,-0.05715 c -0.0339,-0.405695 -0.06,-0.812447 -0.0797,-1.222023 l 0.55209,-0.129822 c -0.0109,-0.252589 -0.0194,-0.506236 -0.025,-0.760941 l -0.5581,-0.09419 c -0.004,-0.204611 -0.008,-0.409928 -0.008,-0.615597 0,-0.203906 0.004,-0.406753 0.008,-0.609248 l 0.5581,-0.09349 c 0.005,-0.254 0.0141,-0.507647 0.025,-0.760589 l -0.55209,-0.131233 c 0.0187,-0.40887 0.0455,-0.815975 0.079,-1.221317 l 0.56409,-0.0568 c 0.0219,-0.252942 0.0462,-0.505178 0.0734,-0.756708 l -0.54152,-0.166864 c 0.0455,-0.406753 0.0967,-0.812095 0.15664,-1.214614 l 0.56585,-0.01976 c 0.0377,-0.25153 0.0797,-0.502003 0.12348,-0.752122 l -0.53129,-0.201436 c 0.072,-0.403225 0.15417,-0.802217 0.24024,-1.200503 l 0.56586,0.01764 c 0.055,-0.249414 0.11289,-0.49777 0.17321,-0.745067 l -0.51576,-0.236008 c 0.0984,-0.396875 0.20214,-0.790575 0.31397,-1.181806 l 0.56551,0.05468 c 0.0705,-0.245886 0.14464,-0.490009 0.22119,-0.73272 l -0.49812,-0.268816 c 0.12382,-0.389467 0.25506,-0.776464 0.39264,-1.159581 l 0.5588,0.09102 c 0.0871,-0.239889 0.17709,-0.478014 0.26987,-0.715434 l -0.48154,-0.301272 c 0.14923,-0.379589 0.30762,-0.755297 0.4699,-1.127478 l 0.55245,0.127353 c 0.10231,-0.232833 0.20779,-0.464608 0.31503,-0.69462 l -0.45967,-0.331964 c 0.17392,-0.369005 0.35349,-0.734836 0.54046,-1.09608 l 0.54328,0.164042 c 0.11782,-0.226484 0.23812,-0.451203 0.36054,-0.674512 l -0.43674,-0.360539 c 0.19826,-0.357011 0.40146,-0.710494 0.61242,-1.059744 l 0.52952,0.198614 c 0.13229,-0.217664 0.26705,-0.433211 0.40428,-0.647347 l -0.41275,-0.389114 c 0.22049,-0.3429 0.44944,-0.680509 0.68192,-1.014589 l 0.51611,0.232833 c 0.14535,-0.208139 0.29422,-0.414161 0.4445,-0.618772 l -0.38629,-0.415925 c 0.24271,-0.328789 0.49283,-0.652639 0.74754,-0.972256 l 0.50024,0.266347 c 0.1591,-0.197908 0.31997,-0.394052 0.4833,-0.58808 l -0.35807,-0.438856 c 0.26318,-0.311503 0.53093,-0.61983 0.8054,-0.921455 l 0.48295,0.298802 c 0.1711,-0.186972 0.34431,-0.37218 0.51999,-0.555625 l -0.32808,-0.46108 c 0.28363,-0.294217 0.57291,-0.583142 0.86713,-0.867128 l 0.46037,0.328789 c 0.18309,-0.175683 0.36901,-0.348897 0.55563,-0.5207 l -0.2981,-0.482953 c 0.30127,-0.274814 0.6096,-0.542219 0.9211,-0.805744 l 0.43851,0.358422 c 0.19402,-0.162984 0.39052,-0.324203 0.58772,-0.482953 l -0.26528,-0.500945 c 0.31891,-0.255058 0.6424,-0.503766 0.97013,-0.74683 l 0.41487,0.38735 c 0.20355,-0.150636 0.41028,-0.298803 0.61807,-0.4445 l -0.23178,-0.51682 c 0.33549,-0.233538 0.67416,-0.462844 1.01882,-0.684389 l 0.38841,0.412398 c 0.21414,-0.136525 0.42933,-0.271639 0.64664,-0.403578 l -0.19826,-0.530225 c 0.34961,-0.210608 0.70344,-0.413808 1.0601,-0.61207 l 0.36089,0.436739 c 0.22261,-0.122766 0.44732,-0.242711 0.6731,-0.360186 l -0.16333,-0.54363 c 0.36159,-0.186973 0.72742,-0.366889 1.09678,-0.540809 l 0.33126,0.460022 c 0.23001,-0.107597 0.46143,-0.212725 0.69462,-0.315383 l -0.1277,-0.55245 c 0.37253,-0.162278 0.74824,-0.320675 1.12783,-0.470253 l 0.30127,0.481895 c 0.23706,-0.09278 0.47519,-0.182739 0.71508,-0.269875 l -0.0907,-0.558448 c 0.38277,-0.137936 0.76906,-0.268463 1.15817,-0.392994 l 0.26812,0.498828 c 0.24271,-0.07726 0.48789,-0.150636 0.73377,-0.221897 l -0.0543,-0.565503 c 0.39017,-0.111831 0.78351,-0.215547 1.17933,-0.31362 l 0.23495,0.516114 c 0.2473,-0.06068 0.49601,-0.11818 0.74472,-0.173214 l -0.0166,-0.566914 c 0.39794,-0.08608 0.79764,-0.167569 1.20051,-0.239536 l 0.20073,0.531284 c 0.24941,-0.04445 0.49988,-0.08572 0.75142,-0.124178 l 0.0205,-0.56515 c 0.40216,-0.06033 0.80786,-0.111478 1.21461,-0.157339 l 0.16545,0.541514 c 0.25189,-0.02716 0.50483,-0.05151 0.75812,-0.07338 l 0.0572,-0.564444 c 0.40534,-0.03387 0.81245,-0.05997 1.22167,-0.07937 l 0.12982,0.55245 c 0.25295,-0.01129 0.50659,-0.0194 0.76095,-0.0254 l 0.0942,-0.558095 c 0.20496,-0.0035 0.40993,-0.0081 0.61559,-0.0081 0.20426,0 0.4064,0.0046 0.60925,0.0081"
       style="fill:#f68d11;fill-opacity:1;fill-rule:evenodd;stroke:none;stroke-width:0.0352778"
       id="path238" />
    <path
       d="m 169.75823,30.110948 0.0938,0.558095 c 0.254,0.0053 0.50765,0.01411 0.76094,0.02505 l 0.13053,-0.55245 c 0.40922,0.0187 0.81633,0.04586 1.22167,0.07937 l 0.0568,0.564092 c 0.25329,0.02187 0.50518,0.04586 0.75671,0.07303 l 0.16615,-0.541514 c 0.40746,0.04551 0.81245,0.09737 1.21568,0.157338 l 0.0191,0.565151 c 0.25188,0.0381 0.50235,0.07973 0.75247,0.123825 l 0.20144,-0.531284 c 0.40322,0.07197 0.80257,0.153459 1.20015,0.239889 l -0.0173,0.566208 c 0.24942,0.05468 0.49777,0.112889 0.74472,0.173214 l 0.23565,-0.516114 c 0.39688,0.09843 0.79128,0.202495 1.18216,0.314325 l -0.0543,0.56515 c 0.24553,0.07126 0.4893,0.144992 0.73307,0.221545 l 0.26847,-0.498828 c 0.38982,0.124531 0.77611,0.255411 1.15887,0.393347 l -0.0907,0.558448 c 0.24024,0.08749 0.47837,0.177447 0.71543,0.269875 l 0.30127,-0.481189 c 0.31574,0.123825 0.6283,0.254353 0.93875,0.388055 0.0328,0.163336 0.0635,0.327378 0.0945,0.49142 l -0.0332,0.142522 0.066,0.02893 c 0.4632,2.510367 0.70732,5.097286 0.70732,7.741356 0,22.93726 -18.21462,41.616841 -40.96809,42.371432 l 0.0586,-0.06244 c -0.15063,-0.204611 -0.2988,-0.410633 -0.44485,-0.618772 l -0.51647,0.232128 c -0.23389,-0.335491 -0.46284,-0.67451 -0.68438,-1.019174 l 0.41204,-0.388056 c -0.13653,-0.214136 -0.27129,-0.429683 -0.40358,-0.646993 l -0.52987,0.197907 c -0.21061,-0.348896 -0.41381,-0.703085 -0.61207,-1.060096 l 0.43674,-0.360187 c -0.12241,-0.222601 -0.24306,-0.447321 -0.36019,-0.673099 l -0.54363,0.162984 c -0.18732,-0.361597 -0.36724,-0.727075 -0.54081,-1.096434 l 0.46003,-0.331611 c -0.10795,-0.229658 -0.21308,-0.461432 -0.31503,-0.694265 l -0.55316,0.127705 c -0.16263,-0.373239 -0.32032,-0.748594 -0.4699,-1.128183 l 0.48154,-0.301273 c -0.0928,-0.236713 -0.18274,-0.475191 -0.26987,-0.71508 l -0.5588,0.09102 c -0.13759,-0.382764 -0.26811,-0.769056 -0.39229,-1.157817 l 0.49847,-0.268817 c -0.0765,-0.243064 -0.15063,-0.487539 -0.22189,-0.733072 l -0.56515,0.05362 c -0.11219,-0.389819 -0.2159,-0.783519 -0.31398,-1.179689 l 0.51612,-0.234244 c -0.0607,-0.247298 -0.11783,-0.495653 -0.17322,-0.745067 l -0.56656,0.01658 c -0.0861,-0.39758 -0.16757,-0.797277 -0.23989,-1.20015 l 0.53093,-0.201436 c -0.0437,-0.249061 -0.0854,-0.499533 -0.12382,-0.751064 l -0.5655,-0.02046 c -0.06,-0.402519 -0.11113,-0.807508 -0.15699,-1.214966 l 0.54187,-0.164395 c -0.0272,-0.252236 -0.0519,-0.505531 -0.0737,-0.758472 l -0.5641,-0.05715 c -0.0339,-0.405695 -0.06,-0.812447 -0.0797,-1.222023 l 0.55209,-0.129822 c -0.0109,-0.252589 -0.0194,-0.506236 -0.025,-0.760941 l -0.5581,-0.09419 c -0.004,-0.204611 -0.008,-0.409928 -0.008,-0.615597 0,-0.203906 0.004,-0.406753 0.008,-0.609248 l 0.5581,-0.09349 c 0.005,-0.254 0.0141,-0.507647 0.025,-0.760589 l -0.55209,-0.131233 c 0.0187,-0.40887 0.0459,-0.815975 0.079,-1.221317 l 0.56409,-0.0568 c 0.0219,-0.252942 0.0462,-0.505178 0.0734,-0.756708 l -0.54152,-0.166864 c 0.0455,-0.406753 0.0967,-0.812095 0.15664,-1.214614 l 0.56585,-0.01976 c 0.0377,-0.25153 0.0797,-0.502003 0.12348,-0.752122 l -0.53129,-0.201436 c 0.072,-0.403225 0.15417,-0.802217 0.24024,-1.200503 l 0.56586,0.01764 c 0.055,-0.249414 0.11289,-0.498122 0.17321,-0.74542 l -0.51576,-0.235655 c 0.0984,-0.396875 0.20214,-0.790575 0.31397,-1.181806 l 0.56551,0.05468 c 0.0705,-0.245886 0.14464,-0.490009 0.22119,-0.73272 l -0.49812,-0.268816 c 0.12382,-0.389467 0.25506,-0.776464 0.39264,-1.159581 l 0.5588,0.09102 c 0.0871,-0.239889 0.17709,-0.478014 0.26987,-0.715434 l -0.48154,-0.301272 c 0.14923,-0.379589 0.30762,-0.755297 0.4699,-1.127478 l 0.55245,0.127353 c 0.10266,-0.233539 0.20779,-0.464608 0.31503,-0.69462 l -0.45967,-0.331964 c 0.17392,-0.369005 0.35349,-0.734836 0.54046,-1.09608 l 0.54328,0.164042 c 0.11782,-0.226484 0.23812,-0.451203 0.36054,-0.674512 L 139.594,47.522299 c 0.19826,-0.357011 0.40216,-0.710494 0.61242,-1.059744 l 0.52952,0.198614 c 0.13229,-0.217664 0.26705,-0.433211 0.40428,-0.647347 l -0.41275,-0.388762 c 0.22119,-0.343252 0.44944,-0.680861 0.68157,-1.014941 l 0.51646,0.232833 c 0.14535,-0.208139 0.29422,-0.414161 0.4445,-0.618772 l -0.38664,-0.415925 c 0.24306,-0.328436 0.49318,-0.652639 0.74789,-0.972256 l 0.50024,0.266347 c 0.1591,-0.197908 0.31997,-0.394052 0.4833,-0.58808 l -0.35807,-0.438856 c 0.26318,-0.311503 0.53093,-0.61983 0.8054,-0.921455 l 0.48295,0.298802 c 0.1711,-0.186972 0.34431,-0.372533 0.51999,-0.555625 l -0.32808,-0.46108 c 0.28363,-0.29457 0.57291,-0.583142 0.86713,-0.867128 l 0.46037,0.328789 c 0.18309,-0.176036 0.36901,-0.348897 0.55563,-0.5207 l -0.2981,-0.482953 c 0.30127,-0.274814 0.6096,-0.542219 0.9211,-0.805744 l 0.43851,0.358422 c 0.19402,-0.162984 0.39052,-0.324203 0.58772,-0.482953 l -0.26528,-0.501297 c 0.31891,-0.254706 0.6424,-0.503414 0.97013,-0.746478 l 0.41487,0.38735 c 0.20355,-0.150636 0.41028,-0.29845 0.61807,-0.4445 l -0.23178,-0.51682 c 0.33549,-0.233538 0.67487,-0.462844 1.01882,-0.684389 l 0.38841,0.412398 c 0.21414,-0.136525 0.42933,-0.271639 0.64664,-0.403578 l -0.19826,-0.530225 c 0.34961,-0.210608 0.70344,-0.413808 1.0601,-0.611717 l 0.36089,0.436386 c 0.22261,-0.122766 0.44732,-0.242711 0.6731,-0.360186 l -0.16369,-0.54363 c 0.36195,-0.186973 0.72778,-0.366889 1.09714,-0.540809 l 0.33126,0.460022 c 0.23001,-0.107597 0.46143,-0.212725 0.69462,-0.31503 l -0.1277,-0.552803 c 0.37253,-0.162278 0.74824,-0.320675 1.12783,-0.470253 l 0.30127,0.481895 c 0.23706,-0.09278 0.47519,-0.182739 0.71508,-0.269875 l -0.0907,-0.558448 c 0.38277,-0.137936 0.76906,-0.268463 1.15817,-0.392994 l 0.26812,0.498828 c 0.24271,-0.07726 0.48789,-0.150636 0.73377,-0.22225 l -0.0543,-0.56515 c 0.39017,-0.111831 0.78387,-0.2159 1.17933,-0.31362 l 0.23495,0.516114 c 0.2473,-0.06068 0.49601,-0.11818 0.74472,-0.173214 l -0.0162,-0.566914 c 0.39758,-0.08608 0.79728,-0.167569 1.20015,-0.239536 l 0.20073,0.531284 c 0.24941,-0.04445 0.49988,-0.08572 0.75142,-0.124178 l 0.0205,-0.56515 c 0.40216,-0.06033 0.80786,-0.111478 1.21461,-0.157339 l 0.16545,0.541514 c 0.25189,-0.02716 0.50483,-0.05151 0.75742,-0.07338 l 0.0579,-0.564444 c 0.40534,-0.03351 0.81245,-0.05997 1.22167,-0.07937 l 0.12982,0.55245 c 0.25295,-0.01129 0.50659,-0.0194 0.76095,-0.0254 l 0.0942,-0.558095 c 0.20496,-0.0035 0.40993,-0.0081 0.61559,-0.0081 0.20426,0 0.40711,0.0046 0.60925,0.0081"
       style="fill:#f9a729;fill-opacity:1;fill-rule:evenodd;stroke:none;stroke-width:0.0352778"
       id="path240" />
    <path
       d="m 169.14898,92.526504 c 15.7787,0 28.64874,-12.869679 28.64874,-28.64837 0,-15.779046 -12.87004,-28.648027 -28.64874,-28.648027 -15.77834,0 -28.64802,12.868981 -28.64802,28.648027 0,15.778691 12.86968,28.64837 28.64802,28.64837"
       style="fill:#f8a527;fill-opacity:1;fill-rule:evenodd;stroke:none;stroke-width:0.0352778"
       id="path242" />
    <path
       d="m 169.14898,35.230107 c 5.11528,0 9.91553,1.342319 14.07231,3.690408 0.0406,0.76447 0.0632,1.534584 0.0632,2.309284 0,21.038257 -15.32432,38.494406 -35.41889,41.822862 -4.57659,-5.07788 -7.36459,-11.800413 -7.36459,-19.174527 0,-15.821732 12.82665,-28.648027 28.64802,-28.648027"
       style="fill:#fab541;fill-opacity:1;fill-rule:evenodd;stroke:none;stroke-width:0.0352778"
       id="path244" />
    <path
       d="m 169.14898,90.872683 c 14.86818,0 26.99491,-12.126024 26.99491,-26.994549 0,-14.868174 -12.12673,-26.994558 -26.99491,-26.994558 -14.86782,0 -26.9942,12.126384 -26.9942,26.994558 0,14.868525 12.12638,26.994549 26.9942,26.994549"
       style="fill:#fab23a;fill-opacity:1;fill-rule:evenodd;stroke:none;stroke-width:0.0352778"
       id="path246" />
    <path
       d="m 171.03635,76.307201 c 1.26259,-0.274814 2.29411,-0.8763 3.08433,-1.804811 0.79904,-0.928159 1.19451,-2.018948 1.19451,-3.281892 0,-1.1176 -0.33479,-2.088092 -1.00507,-2.896306 -0.66216,-0.81668 -1.75295,-1.4351 -3.27377,-1.87325 z m -3.66113,-26.810407 c -0.98849,0.352778 -1.76142,0.928158 -2.3368,1.736019 -0.57609,0.808214 -0.85937,1.693334 -0.85937,2.664178 0,0.884767 0.25788,1.710267 0.7814,2.474384 0.52423,0.756708 1.33245,1.375128 2.41477,1.839383 z m 0,26.397304 V 65.367914 c -3.27378,-0.936272 -5.67126,-2.354086 -7.19244,-4.253089 -1.52893,-1.907469 -2.29376,-4.210756 -2.29376,-6.925734 0,-2.74955 0.86784,-5.061303 2.59468,-6.925733 1.72756,-1.873603 4.02167,-2.947812 6.89152,-3.231092 v -2.474737 h 3.66113 v 2.474737 c 2.6804,0.317852 4.81189,1.228725 6.40115,2.732264 1.5815,1.503892 2.59539,3.514725 3.03318,6.0325 l -6.39268,0.824795 c -0.39547,-1.976262 -1.4097,-3.316817 -3.04165,-4.020962 v 9.820629 c 4.04706,1.08338 6.80508,2.501547 8.26629,4.228394 1.46932,1.735314 2.19921,3.960989 2.19921,6.676673 0,3.033184 -0.91934,5.584825 -2.76683,7.664097 -1.84715,2.079624 -4.40796,3.369026 -7.69867,3.884434 v 4.691942 h -3.66113 v -4.640084 c -2.88678,-0.352777 -5.23311,-1.417813 -7.04603,-3.214156 -1.81293,-1.795638 -2.96475,-4.339519 -3.47134,-7.613297 l 6.54721,-0.772936 c 0.2667,1.340203 0.77399,2.49167 1.51271,3.462514 0.73907,0.971197 1.5554,1.667228 2.45745,2.105025 v 0"
       style="fill:#f68d11;fill-opacity:1;fill-rule:evenodd;stroke:none;stroke-width:0.0352778"
       id="path248" />
    <path
       d="m 169.14898,36.883576 c 5.1809,0 10.02031,1.4605 14.13052,3.990976 10e-4,0.118533 0.005,0.236361 0.005,0.355247 0,20.361276 -14.35418,37.367987 -33.49414,41.458444 -4.72475,-4.861629 -7.63552,-11.495967 -7.63552,-18.810109 0,-14.908743 12.08617,-26.994558 26.9942,-26.994558"
       style="fill:#fbc562;fill-opacity:1;fill-rule:evenodd;stroke:none;stroke-width:0.0352778"
       id="path250" />
    <path
       d="m 167.37522,49.496794 c -0.98849,0.352778 -1.76142,0.928158 -2.3368,1.736019 -0.57609,0.808214 -0.85937,1.693334 -0.85937,2.664178 0,0.884767 0.25788,1.710267 0.7814,2.474384 0.52423,0.756708 1.33245,1.375128 2.41477,1.839383 z m -6.91304,29.345467 c 2.03694,-1.062214 3.97687,-2.285646 5.8039,-3.651954 -0.47625,-0.378531 -0.92463,-0.844903 -1.34831,-1.401234 -0.73872,-0.970844 -1.24601,-2.122311 -1.51271,-3.462514 l -6.54721,0.772936 c 0.50659,3.273778 1.65841,5.817659 3.47134,7.613297 0.0441,0.04374 0.0885,0.08678 0.13299,0.129469 z m 6.91304,-4.509557 v -8.96479 c -3.27378,-0.936272 -5.67126,-2.354086 -7.19244,-4.253089 -1.52893,-1.907469 -2.29376,-4.210756 -2.29376,-6.925734 0,-2.74955 0.86784,-5.061303 2.59468,-6.925733 1.72756,-1.873603 4.02167,-2.947812 6.89152,-3.231092 v -2.474737 h 3.66113 v 2.474737 c 2.6804,0.317852 4.81189,1.228725 6.40115,2.732264 1.5815,1.503892 2.59539,3.514725 3.03318,6.0325 l -6.39268,0.824795 c -0.39547,-1.976262 -1.4097,-3.316817 -3.04165,-4.020962 v 9.820629 c 2.8836,0.771877 5.11316,1.713794 6.68478,2.815872 -1.13347,1.982964 -2.42323,3.863975 -3.85092,5.62857 -0.6671,-0.593725 -1.61184,-1.062567 -2.83386,-1.414992 v 4.582584 c -1.15535,1.168047 -2.37702,2.270478 -3.66113,3.299178 v 0"
       style="fill:#f9a729;fill-opacity:1;fill-rule:evenodd;stroke:none;stroke-width:0.0352778"
       id="path252" />
  </g>
</svg>
